# xmcd CD database file generated by LOLA_Freedb v0.9beta0
# 
# Track frame offsets:
#      150
#      20361
#      33774
#      46422
#      60670
#      76610
#      92531
#      108857
#      126106
#      143511
# 
# Disc length: 2147 seconds
# 
# Revision: 0 
# Processed by: cddbd v1.5.1PL2 Copyright (c) Steve Scherf et al.
# Submitted via: LOLA_Freedb v0.9beta0
# 
DISCID=6a08610a
DTITLE=Bob Marley - Uprising
DYEAR=1980
DGENRE=
TTITLE0=Coming in from the cold
TTITLE1=Real situation
TTITLE2=Bad card
TTITLE3=We and them
TTITLE4=Work
TTITLE5=Zion train
TTITLE6=Pimpers paradise
TTITLE7=Could you be loved
TTITLE8=Forever loving jah
TTITLE9=Redemption song
EXTD=
EXTT0=
EXTT1=
EXTT2=
EXTT3=
EXTT4=
EXTT5=
EXTT6=
EXTT7=
EXTT8=
EXTT9=
PLAYORDER=
